<svg id="Layer_1" data-name="Layer 1" xmlns="http://www.w3.org/2000/svg" xmlns:xlink="http://www.w3.org/1999/xlink" viewBox="0 0 595.28 394.11"><defs><style>.cls-1{fill:#fee513;}.cls-2{clip-path:url(#clip-path);}.cls-3{fill:#ffd400;}.cls-4{fill:#fff;}</style><clipPath id="clip-path"><circle id="_Ellipse_" data-name="&lt;Ellipse&gt;" class="cls-1" cx="296.64" cy="196.92" r="161.13"/></clipPath></defs><title>Artboard 1 copy 3</title><circle id="_Ellipse_2" data-name="&lt;Ellipse&gt;" class="cls-1" cx="296.64" cy="196.92" r="161.13"/><g class="cls-2"><path class="cls-3" d="M296.64,35.79C194.4,35.79,131,120.72,133.51,209c6.35,68.48,61.57,149.89,168,149.83h.55V35.88C300.29,35.83,298.47,35.79,296.64,35.79Z"/></g><path class="cls-4" d="M302.16,35.91c0,.31-.11,43-.11,43.29q0,12.6,0,25.2c0,.27,0,.55.06.86,7.27.85,11.27,6,15,11.42,3.92,5.59,6.16,12,8.3,18.39a147.66,147.66,0,0,1,5.41,21.72,2.34,2.34,0,0,0,3.06,1.91c8.59-2.64,17.15-5.38,26-7.12a95.55,95.55,0,0,1,22.49-2.23,32.24,32.24,0,0,1,10.46,1.87c6.16,2.39,8.64,7.11,7.12,13.56a28.45,28.45,0,0,1-4,8.92,22.4,22.4,0,0,0-1.6,2.53,2.29,2.29,0,0,0-.09,1.74,8,8,0,0,1-1.12,9.38,8.74,8.74,0,0,1-9.66,2.32,2,2,0,0,0-1.58.19c-6.22,5-12.39,10-18.57,15-.47.38-.9.79-1.45,1.28l6.17,4.78c8,6.2,15.59,12.77,22.1,20.53,3.46,4.12,6.68,8.41,8.54,13.51a20.64,20.64,0,0,1,1.21,5.7c.28,4.72-2,8-6.23,10-4.39,2-9.1,2.31-13.84,2.19-10.8-.27-21.23-2.62-31.53-5.63-5.13-1.51-10.21-3.19-15.32-4.78-.48-.16-1-.29-1.64-.48-.46,2.3-.93,4.47-1.35,6.65-2.05,10.59-4.69,21-9.44,30.73a57.05,57.05,0,0,1-4.78,8c-4.06,5.79-6.84,7.59-13.75,9.26v24.16c0,.32.06,27.47,0,27.76s-.31.14-.47.31c-.12-.16-.33.18-.36,0-.06-.35,0-27.79,0-28.15V269.13a39.38,39.38,0,0,1-4.19-.81c-10.57-3.14-18.38-9.48-22.48-19.88a23.91,23.91,0,0,1-1.21-6.68A63.81,63.81,0,0,0,266.58,218a123.53,123.53,0,0,1-10.24-29.94q-4.68-21.42-9.26-42.87c-.61-2.84-1-5.72-1.46-8.63,1.8,2.83,3.8,5.55,4.74,8.84,4.48,15.65,8.92,31.31,13.45,46.94a113.89,113.89,0,0,0,6.77,17.34c1.32,2.77,2.38,5.66,3.53,8.51,1.86,4.64,4.88,8,10,9.17,5.75,1.29,13.08-2.66,15.2-8.17,1.72-4.45-.11-9.2-4.77-12.07a53.27,53.27,0,0,1-8.89-7.08,3.41,3.41,0,0,1-1.16-3.09l.32-2.65c5.29,1.69,10.61,2.78,16.27,1.63V110a9,9,0,0,0-5,1.84,27.71,27.71,0,0,0-7.37,8.88c-4.11,7.16-6.44,15-8.61,22.88-.61,2.27-.55,3.7,1.51,5.42,4.93,4.1,5,9.64,3.5,15.38-1.09.07-1.56-.29-1.61-1.42a4.8,4.8,0,0,0-4-4.77,29.34,29.34,0,0,0-4.38-.68,11.17,11.17,0,0,1-8.21-4.61c-1.63-2.15-3.08-4.45-4.63-6.72a33.08,33.08,0,0,1,12.54-.8c.32-1.19.64-2.41,1-3.62,2.31-8.59,5.19-17,9.9-24.58a47,47,0,0,1,4.78-6.29,15.87,15.87,0,0,1,10.75-5.6V78.45l0-42.54Zm78.22,223.34c1.43-.08,3.15-.13,4.86-.31a15.64,15.64,0,0,0,7.18-2.43,7.19,7.19,0,0,0,3.4-6.11,16.77,16.77,0,0,0-2.84-9.24,65.28,65.28,0,0,0-9.82-12c-7.37-7.51-15.82-13.69-24.38-19.72a2,2,0,0,0-2.45,0c-7,4.43-14,8.82-20.95,13.26a2,2,0,0,0-.8,1.29c-.77,7.46-1.47,14.93-2.25,22.39-.1.94.1,1.33,1,1.65a237.3,237.3,0,0,0,25.53,8A100.89,100.89,0,0,0,380.38,259.25Zm-.54-106.36a92.61,92.61,0,0,0-18.61,2.3,246.22,246.22,0,0,0-26.5,7.69c-2.66.89-2.58.89-2.29,3.72.68,6.66,1.29,13.34,1.88,20a3.89,3.89,0,0,0,1.95,3.3Q346,196,355.61,202.36a2.31,2.31,0,0,0,3.07,0,204.18,204.18,0,0,0,19.95-15.72,1,1,0,0,0,.3-1.4,7.52,7.52,0,0,1,.28-7.12,8.58,8.58,0,0,1,10-4,1.56,1.56,0,0,0,1.33-.22,24.78,24.78,0,0,0,4.86-8.73c1.53-5.57-.43-9.26-6-11A29.53,29.53,0,0,0,379.84,152.89Zm-77.74,18.6,1.37-.54q10.78-4.41,21.57-8.81c1.83-.74,2.11-1.12,1.79-3a174.84,174.84,0,0,0-5-22.5c-2-6.65-4.42-13.16-8.39-19a19.12,19.12,0,0,0-7.4-6.82,7,7,0,0,0-3.93-.81Zm0,63.18a1.15,1.15,0,0,0,.34,0A252.75,252.75,0,0,0,328.91,221a2.39,2.39,0,0,0,1-1.58,46,46,0,0,0,.27-5.38c0-6.84-.1-13.67-.08-20.5a3.25,3.25,0,0,0-1.79-3.09,262.06,262.06,0,0,0-25.17-13.08,6.17,6.17,0,0,0-1-.29v18.29c.9.18,1.73.3,2.54.5,4.53,1.17,8.16,5.08,8.53,9.19.49,5.49-3.07,9.89-8.9,10.91-.89.15-1.08.48-1.07,1.3,0,4.92,0,9.84,0,14.76v1.28l-1.17.13C302.08,233.88,302.08,234.24,302.08,234.67Zm0,5.13v1.54c0,5.4,0,10.8,0,16.19,0,.91-.48,2,.77,2.63.1,0,.09.37.09.56,0,2.52,0,5,0,7.56,0,.23-.06.64-.15.65-1.12.21-.71,1.09-.71,1.71,0,9.95,0,19.91,0,29.87V302a12.07,12.07,0,0,0,5.71-2.12,22.42,22.42,0,0,0,5.95-6.51c4.15-6.44,6.57-13.61,8.62-20.93a156.59,156.59,0,0,0,4.12-20.25c.3-2,.4-1.74-1.51-2.53-5-2.07-10-4.09-14.92-6.19C307.41,242.34,304.87,241.1,302,239.8Zm-.87,19.63V246.62c0-4.2,0-8.4,0-12.59a1.19,1.19,0,0,0-.76-.88,99.1,99.1,0,0,0-10.15-.8,14.76,14.76,0,0,0-14.45,14.17,4.91,4.91,0,0,0,3.53,5.31c5,1.79,9.93,3.52,14.91,5.26C296.46,257.87,298.73,258.61,301.17,259.43Zm52.22-53.35c0-.21,0-.43,0-.65l-17.6-11.34-.45.29v23.19ZM307.17,237.8c.66.33,1.22.63,1.8.88,2.81,1.23,5.61,2.48,8.45,3.65s5.77,2.28,8.65,3.45c1,.4,1.43.08,1.58-.89,0-.27.14-.54.17-.81.54-4.68,1.1-9.35,1.58-14a34.23,34.23,0,0,0,0-3.65Zm20.31-72.33-19.78,8.71,21.81,11.48A121.53,121.53,0,0,0,327.48,165.47ZM277.93,148l-.06-.42a20.1,20.1,0,0,0-3.25-.37,5,5,0,0,0-4.42,3.36c-.58,1.38.7,2.31,1.42,3.3a4.06,4.06,0,0,0,.93.92,4.9,4.9,0,0,0,5.17.74c1.78-.81,2.1-2.54,2.31-4.43h-6.36c0-.08-.05-.16-.07-.24Z"/><path class="cls-4" d="M263.11,264.18c-6.76-5.42-13.85-10-19.72-16-6.28-6.45-8.29-14.41-7.58-23.16.58-7.17,2.63-14,4.44-21s3.72-13.71,5.59-20.57c0-.15.12-.29.25-.62a21.77,21.77,0,0,1,2.33,6.78c.83,4.55.4,9.08-.14,13.62-1,8.25-1.81,16.51-2.08,24.83a24.68,24.68,0,0,0,6.11,17c2,2.4,4.07,4.72,6,7.18a24.09,24.09,0,0,1,4.64,10.28c.05.28.1.55.13.83S263.08,263.71,263.11,264.18Z"/><path class="cls-4" d="M225,231c-1.73-5.85-3.6-11.67-5.13-17.57a40.62,40.62,0,0,1-1.29-9,36.38,36.38,0,0,1,7.11-22.22c4.9-6.95,10.2-13.62,15.33-20.4.45-.6.93-1.17,1.51-1.92a18,18,0,0,1,0,10.09,27.68,27.68,0,0,1-3.87,7.93,80,80,0,0,0-7.8,14.13,43.48,43.48,0,0,0-3,19.83c.28,4,.77,8.07-.13,12.05-.55,2.43-1.51,4.75-2.29,7.12Z"/><path class="cls-4" d="M215,182.4c-4.7-2.75-7.3-8-4.58-13.23a32.37,32.37,0,0,1,5.2-7.12c7.17-7.57,14.51-15,21.79-22.44.14-.14.3-.26.43-.38a5.09,5.09,0,0,1,2.49,6.32,9.59,9.59,0,0,1-1.68,3.27c-2.69,3.22-5.52,6.31-8.27,9.48-3.58,4.13-7.12,8.3-10.72,12.43a17.18,17.18,0,0,0-4.34,10C215.27,181.28,215.12,181.79,215,182.4Z"/><path class="cls-4" d="M215,148.71c-.88-4.18-.72-8.18,1.7-11.68a30.37,30.37,0,0,1,5.44-5.83c3.06-2.55,6.4-4.77,9.73-7.21a8.4,8.4,0,0,1,1,4.91,11.13,11.13,0,0,1-4,8c-4.43,3.86-8.91,7.66-13.37,11.48A3.3,3.3,0,0,1,215,148.71Z"/></svg>